<?xml version="1.0" encoding="UTF-8"?>
<!DOCTYPE svg PUBLIC "-//W3C//DTD SVG 1.1//EN" "http://www.w3.org/Graphics/SVG/1.1/DTD/svg11.dtd">
<svg xmlns="http://www.w3.org/2000/svg" version="1.1" width="818px" height="813px" style="shape-rendering:geometricPrecision; text-rendering:geometricPrecision; image-rendering:optimizeQuality; fill-rule:evenodd; clip-rule:evenodd" xmlns:xlink="http://www.w3.org/1999/xlink">
<g><path style="opacity:1" fill="#f5f9fa" d="M -0.5,-0.5 C 25.5,-0.5 51.5,-0.5 77.5,-0.5C 58.9305,4.9505 42.5972,14.2838 28.5,27.5C 26.4131,28.5846 25.0798,30.2512 24.5,32.5C 17.0381,42.1494 10.5381,52.4828 5,63.5C 2.49274,75.2022 0.659405,86.8689 -0.5,98.5C -0.5,65.5 -0.5,32.5 -0.5,-0.5 Z"/></g>
<g><path style="opacity:1" fill="#000000" d="M 77.5,-0.5 C 298.5,-0.5 519.5,-0.5 740.5,-0.5C 759.069,4.9505 775.403,14.2838 789.5,27.5C 790.08,29.7488 791.413,31.4154 793.5,32.5C 806.137,48.1046 814.137,65.7713 817.5,85.5C 817.5,299.167 817.5,512.833 817.5,726.5C 808.686,770.311 783.02,798.978 740.5,812.5C 519.5,812.5 298.5,812.5 77.5,812.5C 62.1254,807.812 48.1254,800.479 35.5,790.5C 34.4154,788.413 32.7488,787.08 30.5,786.5C 11.3768,766.257 1.04343,742.257 -0.5,714.5C -0.5,509.167 -0.5,303.833 -0.5,98.5C 0.659405,86.8689 2.49274,75.2022 5,63.5C 10.5381,52.4828 17.0381,42.1494 24.5,32.5C 26.5869,31.4154 27.9202,29.7488 28.5,27.5C 42.5972,14.2838 58.9305,4.9505 77.5,-0.5 Z"/></g>
<g><path style="opacity:1" fill="#f6fafa" d="M 740.5,-0.5 C 766.167,-0.5 791.833,-0.5 817.5,-0.5C 817.5,28.1667 817.5,56.8333 817.5,85.5C 814.137,65.7713 806.137,48.1046 793.5,32.5C 792.92,30.2512 791.587,28.5846 789.5,27.5C 775.403,14.2838 759.069,4.9505 740.5,-0.5 Z"/></g>
<g><path style="opacity:1" fill="#55a5ae" d="M 789.5,27.5 C 791.587,28.5846 792.92,30.2512 793.5,32.5C 791.413,31.4154 790.08,29.7488 789.5,27.5 Z"/></g>
<g><path style="opacity:1" fill="#50a3ac" d="M 28.5,27.5 C 27.9202,29.7488 26.5869,31.4154 24.5,32.5C 25.0798,30.2512 26.4131,28.5846 28.5,27.5 Z"/></g>
<g><path style="opacity:1" fill="#fcfdfc" d="M 184.5,98.5 C 285.833,98.5 387.167,98.5 488.5,98.5C 488.333,142.168 488.5,185.835 489,229.5C 491.001,241.497 497.834,248.997 509.5,252C 554.071,252.169 598.571,252.669 643,253.5C 643.667,402.5 643.667,551.5 643,700.5C 642.504,706.666 639.338,710.833 633.5,713C 483.833,713.667 334.167,713.667 184.5,713C 180.725,711.558 177.892,709.058 176,705.5C 174.339,507.534 174.006,309.534 175,111.5C 175.715,105.297 178.881,100.964 184.5,98.5 Z"/></g>
<g><path style="opacity:1" fill="#fafcfb" d="M 510.5,98.5 C 515.324,97.9711 519.657,99.1378 523.5,102C 563.361,141.528 602.861,181.361 642,221.5C 644.639,230.38 641.806,236.546 633.5,240C 592.167,240.667 550.833,240.667 509.5,240C 504.449,238.283 501.615,234.783 501,229.5C 500.333,189.5 500.333,149.5 501,109.5C 502.338,104.102 505.504,100.435 510.5,98.5 Z"/></g>
<g><path style="opacity:1" fill="#000000" d="M 312.5,239.5 C 338.374,240.373 351.374,253.707 351.5,279.5C 351.929,305.898 339.096,320.565 313,323.5C 287.173,319.999 274.673,305.166 275.5,279C 275.668,254.334 288.002,241.167 312.5,239.5 Z"/></g>
<g><path style="opacity:1" fill="#000000" d="M 449.5,262.5 C 467.053,262.736 478.72,271.069 484.5,287.5C 478.956,289.342 473.289,290.676 467.5,291.5C 466.195,284.691 462.195,280.191 455.5,278C 441.116,274.938 431.949,280.438 428,294.5C 425.452,306.494 426.452,318.161 431,329.5C 439.26,339.238 449.093,341.071 460.5,335C 464.312,330.531 467.478,325.698 470,320.5C 474.5,322 479,323.5 483.5,325C 484.022,325.561 484.355,326.228 484.5,327C 478.673,343.822 466.839,352.655 449,353.5C 427.195,351.697 414.195,340.03 410,318.5C 407.676,303.788 410.343,290.121 418,277.5C 426.47,268.013 436.97,263.013 449.5,262.5 Z"/></g>
<g><path style="opacity:1" fill="#81c1c6" d="M 511.5,265.5 C 505.068,264.193 498.734,264.193 492.5,265.5C 491.957,265.44 491.624,265.107 491.5,264.5C 494.833,264.167 498.167,263.833 501.5,263.5C 505.239,263.514 508.572,264.18 511.5,265.5 Z"/></g>
<g><path style="opacity:1" fill="#7fc0c5" d="M 554.5,264.5 C 560.645,263.51 566.978,263.177 573.5,263.5C 573.737,264.791 573.404,265.791 572.5,266.5C 566.926,264.547 560.926,263.88 554.5,264.5 Z"/></g>
<g><path style="opacity:1" fill="#000000" d="M 511.5,265.5 C 518.355,286.898 525.522,308.232 533,329.5C 541.064,308.14 548.231,286.474 554.5,264.5C 560.926,263.88 566.926,264.547 572.5,266.5C 561.946,294.281 551.946,322.281 542.5,350.5C 536.256,351.458 529.923,351.791 523.5,351.5C 513.165,322.828 502.832,294.162 492.5,265.5C 498.734,264.193 505.068,264.193 511.5,265.5 Z"/></g>
<g><path style="opacity:1" fill="#000000" d="M 271.5,307.5 C 272.239,307.369 272.906,307.536 273.5,308C 289.275,330.589 309.942,336.589 335.5,326C 342.833,321.333 348.833,315.333 353.5,308C 354.908,307.685 356.241,308.018 357.5,309C 375.648,323.803 384.148,342.97 383,366.5C 381.664,372.501 378.164,376.668 372.5,379C 333.167,379.667 293.833,379.667 254.5,379C 249.243,376.744 245.743,372.91 244,367.5C 242.118,342.273 251.285,322.273 271.5,307.5 Z"/></g>
<g><path style="opacity:1" fill="#7fc0c5" d="M 542.5,350.5 C 539.742,351.818 536.576,352.485 533,352.5C 529.648,352.498 526.482,352.165 523.5,351.5C 529.923,351.791 536.256,351.458 542.5,350.5 Z"/></g>
<g><path style="opacity:1" fill="#000000" d="M 573.5,365.5 C 573.5,371.5 573.5,377.5 573.5,383.5C 518.833,383.5 464.167,383.5 409.5,383.5C 409.5,377.5 409.5,371.5 409.5,365.5C 464.167,365.5 518.833,365.5 573.5,365.5 Z"/></g>
<g><path style="opacity:1" fill="#58acb4" d="M 573.5,365.5 C 518.833,365.5 464.167,365.5 409.5,365.5C 409.5,371.5 409.5,377.5 409.5,383.5C 464.167,383.5 518.833,383.5 573.5,383.5C 518.669,384.499 463.669,384.832 408.5,384.5C 408.5,377.833 408.5,371.167 408.5,364.5C 463.669,364.168 518.669,364.501 573.5,365.5 Z"/></g>
<g><path style="opacity:1" fill="#000000" d="M 243.5,426.5 C 353.833,426.5 464.167,426.5 574.5,426.5C 574.5,432.833 574.5,439.167 574.5,445.5C 464.167,445.5 353.833,445.5 243.5,445.5C 243.5,439.167 243.5,432.833 243.5,426.5 Z"/></g>
<g><path style="opacity:1" fill="#000000" d="M 243.5,492.5 C 353.833,492.5 464.167,492.5 574.5,492.5C 574.5,498.833 574.5,505.167 574.5,511.5C 464.167,511.5 353.833,511.5 243.5,511.5C 243.5,505.167 243.5,498.833 243.5,492.5 Z"/></g>
<g><path style="opacity:1" fill="#58acb4" d="M 242.5,557.5 C 353.5,557.5 464.5,557.5 575.5,557.5C 575.5,564.167 575.5,570.833 575.5,577.5C 464.5,577.5 353.5,577.5 242.5,577.5C 242.5,570.833 242.5,564.167 242.5,557.5 Z"/></g>
<g><path style="opacity:1" fill="#000000" d="M 243.5,558.5 C 353.833,558.5 464.167,558.5 574.5,558.5C 574.5,564.5 574.5,570.5 574.5,576.5C 464.167,576.5 353.833,576.5 243.5,576.5C 243.5,570.5 243.5,564.5 243.5,558.5 Z"/></g>
<g><path style="opacity:1" fill="#f5fafa" d="M -0.5,714.5 C 1.04343,742.257 11.3768,766.257 30.5,786.5C 31.5846,788.587 33.2512,789.92 35.5,790.5C 48.1254,800.479 62.1254,807.812 77.5,812.5C 51.5,812.5 25.5,812.5 -0.5,812.5C -0.5,779.833 -0.5,747.167 -0.5,714.5 Z"/></g>
<g><path style="opacity:1" fill="#f6fafa" d="M 817.5,726.5 C 817.5,755.167 817.5,783.833 817.5,812.5C 791.833,812.5 766.167,812.5 740.5,812.5C 783.02,798.978 808.686,770.311 817.5,726.5 Z"/></g>
<g><path style="opacity:1" fill="#55a5ae" d="M 30.5,786.5 C 32.7488,787.08 34.4154,788.413 35.5,790.5C 33.2512,789.92 31.5846,788.587 30.5,786.5 Z"/></g>
</svg>
